G75*
%MOIN*%
%OFA0B0*%
%FSLAX24Y24*%
%IPPOS*%
%LPD*%
%AMOC8*
5,1,8,0,0,1.08239X$1,22.5*
%
%ADD10R,0.0240X0.0870*%
%ADD11R,0.0433X0.0394*%
%ADD12R,0.0394X0.0433*%
%ADD13C,0.0160*%
%ADD14R,0.0376X0.0376*%
%ADD15C,0.0240*%
%ADD16C,0.0120*%
D10*
X002250Y006680D03*
X002750Y006680D03*
X003250Y006680D03*
X003750Y006680D03*
X003750Y009330D03*
X003250Y009330D03*
X002750Y009330D03*
X002250Y009330D03*
D11*
X001311Y006685D03*
X001311Y006016D03*
X004689Y006409D03*
X004689Y007079D03*
D12*
X004157Y005563D03*
X003488Y005563D03*
X002902Y005563D03*
X002232Y005563D03*
D13*
X001150Y004634D02*
X000953Y004831D01*
X001150Y004634D02*
X002528Y004634D01*
X002724Y004437D01*
X003906Y004437D01*
X004157Y004689D01*
X004157Y005563D01*
X004638Y005563D01*
X004693Y005618D01*
X004693Y006406D01*
X004689Y006409D01*
X004689Y007079D02*
X004689Y007197D01*
X004299Y007587D01*
X002724Y007587D01*
X002331Y007193D01*
X002331Y006761D01*
X002250Y006680D01*
X001937Y007390D02*
X000953Y007390D01*
X000756Y007193D01*
X000756Y006406D01*
X001150Y006012D01*
X001307Y006012D01*
X001311Y006016D01*
X001937Y007390D02*
X002250Y007703D01*
X002250Y009330D01*
X003512Y007980D02*
X003750Y008219D01*
X003750Y009330D01*
X003709Y009161D02*
X004299Y009161D01*
X004123Y006680D02*
X003750Y006680D01*
X004123Y006680D02*
X004201Y006602D01*
X003512Y006012D02*
X003512Y005587D01*
X003488Y005563D01*
X003512Y006012D02*
X003329Y006195D01*
X003250Y006195D01*
X003250Y006680D01*
X002750Y006680D02*
X002750Y005715D01*
X002902Y005563D01*
X003118Y005028D02*
X002331Y005028D01*
X002232Y005126D01*
X002232Y005563D01*
X003118Y005028D02*
X003217Y004929D01*
X003217Y004831D01*
D14*
X003217Y004831D03*
X002528Y004634D03*
X001875Y006500D03*
X000953Y004831D03*
X004201Y006602D03*
X004299Y009161D03*
D15*
X002250Y006680D02*
X002070Y006500D01*
X001875Y006500D01*
X001496Y006500D01*
X001311Y006685D01*
D16*
X001045Y007002D02*
X000974Y006932D01*
X000974Y006470D01*
X000956Y006488D01*
X000956Y007110D01*
X001036Y007190D01*
X002020Y007190D01*
X002137Y007307D01*
X002450Y007620D01*
X002450Y008805D01*
X002490Y008845D01*
X002490Y009766D01*
X002510Y009766D01*
X002510Y008845D01*
X002580Y008775D01*
X002920Y008775D01*
X002990Y008845D01*
X002990Y009766D01*
X003010Y009766D01*
X003010Y008845D01*
X003080Y008775D01*
X003420Y008775D01*
X003480Y008836D01*
X003481Y008833D01*
X003502Y008797D01*
X003532Y008767D01*
X003568Y008746D01*
X003609Y008735D01*
X003750Y008735D01*
X003891Y008735D01*
X003932Y008746D01*
X003968Y008767D01*
X003998Y008797D01*
X004019Y008833D01*
X004030Y008874D01*
X004030Y009330D01*
X004030Y009766D01*
X005016Y009766D01*
X005016Y007335D01*
X004955Y007396D01*
X004773Y007396D01*
X004499Y007669D01*
X004382Y007787D01*
X002642Y007787D01*
X002248Y007393D01*
X002131Y007276D01*
X002131Y007235D01*
X002080Y007235D01*
X002010Y007165D01*
X002010Y006808D01*
X001648Y006808D01*
X001648Y006932D01*
X001577Y007002D01*
X001045Y007002D01*
X000956Y007018D02*
X002010Y007018D01*
X002010Y007136D02*
X000982Y007136D01*
X000974Y006899D02*
X000956Y006899D01*
X000956Y006781D02*
X000974Y006781D01*
X000974Y006662D02*
X000956Y006662D01*
X000956Y006544D02*
X000974Y006544D01*
X001648Y006899D02*
X002010Y006899D01*
X002085Y007255D02*
X002131Y007255D01*
X002203Y007373D02*
X002228Y007373D01*
X002322Y007492D02*
X002346Y007492D01*
X002440Y007610D02*
X002465Y007610D01*
X002450Y007729D02*
X002583Y007729D01*
X002450Y007847D02*
X005016Y007847D01*
X005016Y007729D02*
X004440Y007729D01*
X004559Y007610D02*
X005016Y007610D01*
X005016Y007492D02*
X004677Y007492D01*
X004978Y007373D02*
X005016Y007373D01*
X005016Y007966D02*
X002450Y007966D01*
X002450Y008084D02*
X005016Y008084D01*
X005016Y008203D02*
X002450Y008203D01*
X002450Y008321D02*
X005016Y008321D01*
X005016Y008440D02*
X002450Y008440D01*
X002450Y008558D02*
X005016Y008558D01*
X005016Y008677D02*
X002450Y008677D01*
X002450Y008795D02*
X002560Y008795D01*
X002510Y008914D02*
X002490Y008914D01*
X002490Y009032D02*
X002510Y009032D01*
X002510Y009151D02*
X002490Y009151D01*
X002490Y009269D02*
X002510Y009269D01*
X002510Y009388D02*
X002490Y009388D01*
X002490Y009506D02*
X002510Y009506D01*
X002510Y009625D02*
X002490Y009625D01*
X002490Y009743D02*
X002510Y009743D01*
X002990Y009743D02*
X003010Y009743D01*
X003010Y009625D02*
X002990Y009625D01*
X002990Y009506D02*
X003010Y009506D01*
X003010Y009388D02*
X002990Y009388D01*
X002990Y009269D02*
X003010Y009269D01*
X003010Y009151D02*
X002990Y009151D01*
X002990Y009032D02*
X003010Y009032D01*
X003010Y008914D02*
X002990Y008914D01*
X002940Y008795D02*
X003060Y008795D01*
X003440Y008795D02*
X003504Y008795D01*
X003750Y008795D02*
X003750Y008795D01*
X003750Y008735D02*
X003750Y009330D01*
X004030Y009330D01*
X003750Y009330D01*
X003750Y009330D01*
X003750Y009330D01*
X003750Y008735D01*
X003750Y008914D02*
X003750Y008914D01*
X003750Y009032D02*
X003750Y009032D01*
X003750Y009151D02*
X003750Y009151D01*
X003750Y009269D02*
X003750Y009269D01*
X004030Y009269D02*
X005016Y009269D01*
X005016Y009151D02*
X004030Y009151D01*
X004030Y009032D02*
X005016Y009032D01*
X005016Y008914D02*
X004030Y008914D01*
X003996Y008795D02*
X005016Y008795D01*
X005016Y009388D02*
X004030Y009388D01*
X004030Y009506D02*
X005016Y009506D01*
X005016Y009625D02*
X004030Y009625D01*
X004030Y009743D02*
X005016Y009743D01*
M02*
