G75*
%MOIN*%
%OFA0B0*%
%FSLAX24Y24*%
%IPPOS*%
%LPD*%
%AMOC8*
5,1,8,0,0,1.08239X$1,22.5*
%
%ADD10R,0.0650X0.0394*%
%ADD11R,0.0394X0.4236*%
%ADD12R,0.0394X0.3843*%
%ADD13R,0.0551X0.0709*%
%ADD14R,0.0394X0.0433*%
%ADD15C,0.0160*%
%ADD16C,0.0400*%
%ADD17R,0.0376X0.0376*%
%ADD18C,0.0120*%
D10*
X001919Y007232D03*
X001919Y008492D03*
X003948Y008492D03*
X003948Y007232D03*
D11*
X001484Y002618D03*
X004240Y002618D03*
D12*
X003256Y002421D03*
X002469Y002421D03*
D13*
X002283Y005488D03*
X003339Y005488D03*
X004677Y005488D03*
X000945Y005488D03*
D14*
X001067Y007846D03*
X001067Y008516D03*
D15*
X001067Y009079D01*
X001150Y009161D01*
X004299Y009161D01*
X003948Y008492D02*
X004693Y007747D01*
X004693Y006799D01*
X004496Y006602D01*
X004201Y006602D01*
X003948Y007232D02*
X003948Y007544D01*
X003906Y007587D01*
X003512Y007587D01*
X003512Y007980D01*
X002331Y006012D02*
X002283Y005965D01*
X002283Y005488D01*
X002528Y004634D02*
X002528Y004142D01*
X002429Y004043D01*
X002429Y002461D01*
X002469Y002421D01*
X003256Y002421D02*
X003256Y004831D01*
X003256Y005374D01*
X003339Y005488D01*
X003256Y004831D02*
X003217Y004831D01*
X004000Y005500D02*
X004665Y005500D01*
X004677Y005488D01*
X004563Y005488D01*
X004496Y005504D02*
X004677Y005488D01*
X001937Y008474D02*
X001919Y008492D01*
X000945Y005488D02*
X000953Y005480D01*
X000953Y004831D01*
D16*
X001500Y006000D02*
X001000Y006500D01*
X001000Y007780D01*
X001067Y007846D01*
X001846Y007846D01*
X002000Y008000D01*
X002000Y008411D01*
X001919Y008492D01*
X001875Y006500D02*
X001500Y006125D01*
X001500Y006000D01*
X001500Y002618D01*
X001484Y002618D01*
X004000Y005000D02*
X004000Y005500D01*
X004000Y005000D02*
X004240Y004760D01*
X004240Y002618D01*
D17*
X003217Y004831D03*
X002528Y004634D03*
X001875Y006500D03*
X000953Y004831D03*
X004201Y006602D03*
X004299Y009161D03*
D18*
X004322Y008809D02*
X003573Y008809D01*
X003503Y008739D01*
X003503Y008246D01*
X003573Y008175D01*
X003982Y008175D01*
X004493Y007664D01*
X004493Y006882D01*
X004480Y006869D01*
X004439Y006910D01*
X004374Y006910D01*
X004401Y006937D01*
X004422Y006974D01*
X004433Y007014D01*
X004433Y007194D01*
X003986Y007194D01*
X003986Y007271D01*
X003909Y007271D01*
X003909Y007589D01*
X003602Y007589D01*
X003561Y007578D01*
X003524Y007557D01*
X003495Y007527D01*
X003474Y007491D01*
X003463Y007450D01*
X003463Y007271D01*
X003909Y007271D01*
X003909Y007194D01*
X003463Y007194D01*
X003463Y007014D01*
X003474Y006974D01*
X003495Y006937D01*
X003524Y006907D01*
X003561Y006886D01*
X003602Y006875D01*
X003909Y006875D01*
X003909Y007194D01*
X003986Y007194D01*
X003986Y006910D01*
X003963Y006910D01*
X003893Y006840D01*
X003893Y006365D01*
X003963Y006294D01*
X004439Y006294D01*
X004509Y006365D01*
X004509Y006402D01*
X004579Y006402D01*
X004776Y006599D01*
X004893Y006716D01*
X004893Y007830D01*
X004393Y008330D01*
X004393Y008739D01*
X004322Y008809D01*
X004336Y008795D02*
X005016Y008795D01*
X005016Y008677D02*
X004393Y008677D01*
X004393Y008558D02*
X005016Y008558D01*
X005016Y008440D02*
X004393Y008440D01*
X004402Y008321D02*
X005016Y008321D01*
X005016Y008203D02*
X004520Y008203D01*
X004639Y008084D02*
X005016Y008084D01*
X005016Y007966D02*
X004757Y007966D01*
X004876Y007847D02*
X005016Y007847D01*
X005016Y007729D02*
X004893Y007729D01*
X004893Y007610D02*
X005016Y007610D01*
X005016Y007492D02*
X004893Y007492D01*
X004893Y007373D02*
X005016Y007373D01*
X005016Y007255D02*
X004893Y007255D01*
X004893Y007136D02*
X005016Y007136D01*
X005016Y007018D02*
X004893Y007018D01*
X004893Y006899D02*
X005016Y006899D01*
X005016Y006781D02*
X004893Y006781D01*
X004839Y006662D02*
X005016Y006662D01*
X005016Y006544D02*
X004720Y006544D01*
X004602Y006425D02*
X005016Y006425D01*
X005016Y006307D02*
X004451Y006307D01*
X004381Y006003D02*
X004340Y005992D01*
X004303Y005971D01*
X004274Y005941D01*
X004252Y005904D01*
X004242Y005864D01*
X004242Y005548D01*
X004617Y005548D01*
X004617Y005428D01*
X004242Y005428D01*
X004242Y005220D01*
X003734Y005220D01*
X003734Y005892D01*
X003664Y005963D01*
X003013Y005963D01*
X002943Y005892D01*
X002943Y005220D01*
X002719Y005220D01*
X002719Y005428D01*
X002343Y005428D01*
X002343Y005548D01*
X002223Y005548D01*
X002223Y005428D01*
X001848Y005428D01*
X001848Y005220D01*
X001820Y005220D01*
X001820Y005992D01*
X002019Y006192D01*
X002113Y006192D01*
X002183Y006262D01*
X002183Y006408D01*
X002195Y006436D01*
X002195Y006564D01*
X002183Y006592D01*
X002183Y006738D01*
X002113Y006808D01*
X001967Y006808D01*
X001939Y006820D01*
X001811Y006820D01*
X001783Y006808D01*
X001637Y006808D01*
X001567Y006738D01*
X001567Y006644D01*
X001438Y006515D01*
X001320Y006633D01*
X001320Y007516D01*
X001330Y007526D01*
X001521Y007526D01*
X001474Y007479D01*
X001474Y006986D01*
X001544Y006915D01*
X002293Y006915D01*
X002364Y006986D01*
X002364Y007479D01*
X002293Y007549D01*
X001965Y007549D01*
X002028Y007575D01*
X002118Y007665D01*
X002118Y007665D01*
X002181Y007729D01*
X002271Y007819D01*
X002320Y007936D01*
X002320Y008202D01*
X002364Y008246D01*
X002364Y008739D01*
X002293Y008809D01*
X001990Y008809D01*
X001982Y008812D01*
X001855Y008812D01*
X001847Y008809D01*
X001544Y008809D01*
X001474Y008739D01*
X001474Y008246D01*
X001544Y008175D01*
X001680Y008175D01*
X001680Y008166D01*
X001354Y008166D01*
X001362Y008171D01*
X001392Y008201D01*
X001413Y008237D01*
X001424Y008278D01*
X001424Y008477D01*
X001105Y008477D01*
X001105Y008554D01*
X001029Y008554D01*
X001029Y008892D01*
X000849Y008892D01*
X000808Y008881D01*
X000772Y008860D01*
X000742Y008831D01*
X000721Y008794D01*
X000711Y008755D01*
X000711Y009766D01*
X005016Y009766D01*
X005016Y005991D01*
X005015Y005992D01*
X004974Y006003D01*
X004737Y006003D01*
X004737Y005548D01*
X004617Y005548D01*
X004617Y006003D01*
X004381Y006003D01*
X004284Y005951D02*
X003675Y005951D01*
X003734Y005833D02*
X004242Y005833D01*
X004242Y005714D02*
X003734Y005714D01*
X003734Y005596D02*
X004242Y005596D01*
X004242Y005359D02*
X003734Y005359D01*
X003734Y005240D02*
X004242Y005240D01*
X004617Y005477D02*
X003734Y005477D01*
X003951Y006307D02*
X002183Y006307D01*
X002190Y006425D02*
X003893Y006425D01*
X003893Y006544D02*
X002195Y006544D01*
X002183Y006662D02*
X003893Y006662D01*
X003893Y006781D02*
X002140Y006781D01*
X002364Y007018D02*
X003463Y007018D01*
X003463Y007136D02*
X002364Y007136D01*
X002364Y007255D02*
X003909Y007255D01*
X003986Y007255D02*
X004493Y007255D01*
X004433Y007271D02*
X004433Y007450D01*
X004422Y007491D01*
X004401Y007527D01*
X004371Y007557D01*
X004334Y007578D01*
X004294Y007589D01*
X003986Y007589D01*
X003986Y007271D01*
X004433Y007271D01*
X004433Y007373D02*
X004493Y007373D01*
X004493Y007492D02*
X004421Y007492D01*
X004493Y007610D02*
X002063Y007610D01*
X002181Y007729D02*
X004428Y007729D01*
X004310Y007847D02*
X002283Y007847D01*
X002320Y007966D02*
X004191Y007966D01*
X004073Y008084D02*
X002320Y008084D01*
X002320Y008203D02*
X003546Y008203D01*
X003503Y008321D02*
X002364Y008321D01*
X002364Y008440D02*
X003503Y008440D01*
X003503Y008558D02*
X002364Y008558D01*
X002364Y008677D02*
X003503Y008677D01*
X003559Y008795D02*
X002307Y008795D01*
X002351Y007492D02*
X003474Y007492D01*
X003463Y007373D02*
X002364Y007373D01*
X002016Y006188D02*
X005016Y006188D01*
X005016Y006070D02*
X001897Y006070D01*
X001946Y005992D02*
X001910Y005971D01*
X001880Y005941D01*
X001859Y005904D01*
X001848Y005864D01*
X001848Y005548D01*
X002223Y005548D01*
X002223Y006003D01*
X001987Y006003D01*
X001946Y005992D01*
X001890Y005951D02*
X001820Y005951D01*
X001820Y005833D02*
X001848Y005833D01*
X001848Y005714D02*
X001820Y005714D01*
X001820Y005596D02*
X001848Y005596D01*
X001820Y005477D02*
X002223Y005477D01*
X002223Y005596D02*
X002343Y005596D01*
X002343Y005548D02*
X002343Y006003D01*
X002580Y006003D01*
X002621Y005992D01*
X002657Y005971D01*
X002687Y005941D01*
X002708Y005904D01*
X002719Y005864D01*
X002719Y005548D01*
X002343Y005548D01*
X002343Y005477D02*
X002943Y005477D01*
X002943Y005596D02*
X002719Y005596D01*
X002719Y005714D02*
X002943Y005714D01*
X002943Y005833D02*
X002719Y005833D01*
X002677Y005951D02*
X003002Y005951D01*
X002943Y005359D02*
X002719Y005359D01*
X002719Y005240D02*
X002943Y005240D01*
X002343Y005714D02*
X002223Y005714D01*
X002223Y005833D02*
X002343Y005833D01*
X002343Y005951D02*
X002223Y005951D01*
X001848Y005359D02*
X001820Y005359D01*
X001820Y005240D02*
X001848Y005240D01*
X001466Y006544D02*
X001409Y006544D01*
X001320Y006662D02*
X001567Y006662D01*
X001610Y006781D02*
X001320Y006781D01*
X001320Y006899D02*
X003539Y006899D01*
X003909Y006899D02*
X003952Y006899D01*
X003986Y007018D02*
X003909Y007018D01*
X003909Y007136D02*
X003986Y007136D01*
X003986Y007373D02*
X003909Y007373D01*
X003909Y007492D02*
X003986Y007492D01*
X004433Y007136D02*
X004493Y007136D01*
X004493Y007018D02*
X004433Y007018D01*
X004450Y006899D02*
X004493Y006899D01*
X004617Y005951D02*
X004737Y005951D01*
X004737Y005833D02*
X004617Y005833D01*
X004617Y005714D02*
X004737Y005714D01*
X004737Y005596D02*
X004617Y005596D01*
X005016Y008914D02*
X000711Y008914D01*
X000711Y008795D02*
X000722Y008795D01*
X000711Y009032D02*
X005016Y009032D01*
X005016Y009151D02*
X000711Y009151D01*
X000711Y009269D02*
X005016Y009269D01*
X005016Y009388D02*
X000711Y009388D01*
X000711Y009506D02*
X005016Y009506D01*
X005016Y009625D02*
X000711Y009625D01*
X000711Y009743D02*
X005016Y009743D01*
X001530Y008795D02*
X001412Y008795D01*
X001413Y008794D02*
X001392Y008831D01*
X001362Y008860D01*
X001326Y008881D01*
X001285Y008892D01*
X001105Y008892D01*
X001105Y008554D01*
X001424Y008554D01*
X001424Y008753D01*
X001413Y008794D01*
X001424Y008677D02*
X001474Y008677D01*
X001474Y008558D02*
X001424Y008558D01*
X001424Y008440D02*
X001474Y008440D01*
X001474Y008321D02*
X001424Y008321D01*
X001393Y008203D02*
X001517Y008203D01*
X001486Y007492D02*
X001320Y007492D01*
X001320Y007373D02*
X001474Y007373D01*
X001474Y007255D02*
X001320Y007255D01*
X001320Y007136D02*
X001474Y007136D01*
X001474Y007018D02*
X001320Y007018D01*
X001105Y008558D02*
X001029Y008558D01*
X001029Y008677D02*
X001105Y008677D01*
X001105Y008795D02*
X001029Y008795D01*
M02*
