G75*
%MOIN*%
%OFA0B0*%
%FSLAX24Y24*%
%IPPOS*%
%LPD*%
%AMOC8*
5,1,8,0,0,1.08239X$1,22.5*
%
%ADD10C,0.0060*%
%ADD11C,0.0050*%
%ADD12C,0.0010*%
%ADD13C,0.0040*%
D10*
X002070Y007000D02*
X002070Y009010D01*
X003930Y009010D02*
X003930Y007000D01*
D11*
X001908Y009113D02*
X001910Y009128D01*
X001916Y009141D01*
X001925Y009153D01*
X001936Y009162D01*
X001950Y009168D01*
X001965Y009170D01*
X001980Y009168D01*
X001993Y009162D01*
X002005Y009153D01*
X002014Y009142D01*
X002020Y009128D01*
X002022Y009113D01*
X002020Y009098D01*
X002014Y009085D01*
X002005Y009073D01*
X001994Y009064D01*
X001980Y009058D01*
X001965Y009056D01*
X001950Y009058D01*
X001937Y009064D01*
X001925Y009073D01*
X001916Y009084D01*
X001910Y009098D01*
X001908Y009113D01*
D12*
X002542Y008145D02*
X002642Y008145D01*
X002592Y008145D02*
X002592Y008295D01*
X002642Y008245D01*
X002690Y008295D02*
X002690Y008170D01*
X002715Y008145D01*
X002765Y008145D01*
X002790Y008170D01*
X002790Y008295D01*
D13*
X002337Y005833D02*
X002030Y005833D01*
X002041Y006120D02*
X002041Y006351D01*
X001965Y006427D01*
X001811Y006427D01*
X001734Y006351D01*
X001734Y006120D01*
X001734Y006274D02*
X001581Y006427D01*
X001581Y006120D02*
X002041Y006120D01*
X002030Y006140D02*
X002030Y006217D01*
X002106Y006293D01*
X002260Y006293D01*
X002337Y006217D01*
X002490Y006217D02*
X002490Y006063D01*
X002567Y005986D01*
X002797Y005986D01*
X002797Y005833D02*
X002797Y006293D01*
X002567Y006293D01*
X002490Y006217D01*
X002643Y005986D02*
X002490Y005833D01*
X002337Y005833D02*
X002030Y006140D01*
X001811Y006581D02*
X001811Y006888D01*
X002041Y006811D02*
X001811Y006581D01*
X001581Y006811D02*
X002041Y006811D01*
X003706Y006217D02*
X003706Y006140D01*
X003783Y006063D01*
X003706Y005986D01*
X003706Y005910D01*
X003783Y005833D01*
X003936Y005833D01*
X004013Y005910D01*
X004167Y005833D02*
X004320Y005986D01*
X004243Y005986D02*
X004474Y005986D01*
X004474Y005833D02*
X004474Y006293D01*
X004243Y006293D01*
X004167Y006217D01*
X004167Y006063D01*
X004243Y005986D01*
X004013Y006217D02*
X003936Y006293D01*
X003783Y006293D01*
X003706Y006217D01*
X003783Y006063D02*
X003860Y006063D01*
X004152Y007514D02*
X004459Y007514D01*
X004612Y007514D02*
X004766Y007668D01*
X004689Y007668D02*
X004919Y007668D01*
X004919Y007514D02*
X004919Y007974D01*
X004689Y007974D01*
X004612Y007898D01*
X004612Y007744D01*
X004689Y007668D01*
X004459Y007821D02*
X004305Y007974D01*
X004305Y007514D01*
M02*
